HIERARCHY
ROOT hip
{
  OFFSET 0 0 0
  CHANNELS 6 Xposition Yposition Zposition Zrotation Yrotation Xrotation
  JOINT abdomen
  {
    OFFSET 0 20.6881 -0.73152
    CHANNELS 3 Zrotation Xrotation Yrotation
    JOINT chest
    {
      OFFSET 0 11.7043 -0.48768
      CHANNELS 3 Zrotation Xrotation Yrotation
      JOINT neck
      {
        OFFSET 0 22.1894 -2.19456
        CHANNELS 3 Zrotation Xrotation Yrotation
        JOINT head
        {
          OFFSET -0.24384 7.07133 1.2192
          CHANNELS 3 Zrotation Xrotation Yrotation
          JOINT leftEye
          {
            OFFSET 4.14528 8.04674 8.04672
            CHANNELS 3 Zrotation Xrotation Yrotation
            End Site
            {
              OFFSET 1 0 0
            }
          }
          JOINT rightEye
          {
            OFFSET -3.6576 8.04674 8.04672
            CHANNELS 3 Zrotation Xrotation Yrotation
            End Site
            {
              OFFSET 1 0 0
            }
          }
        }
      }
      JOINT rCollar
      {
        OFFSET -2.68224 19.2634 -4.8768
        CHANNELS 3 Zrotation Xrotation Yrotation
        JOINT rShldr
        {
          OFFSET -8.77824 -1.95073 1.46304
          CHANNELS 3 Zrotation Xrotation Yrotation
          JOINT rForeArm
          {
            OFFSET -28.1742 -1.7115 0.48768
            CHANNELS 3 Zrotation Xrotation Yrotation
            JOINT rHand
            {
              OFFSET -22.5879 0.773209 7.07136
              CHANNELS 3 Zrotation Xrotation Yrotation
              JOINT rThumb1
              {
                OFFSET -1.2192 -0.487915 3.41376
                CHANNELS 3 Zrotation Xrotation Yrotation
                JOINT rThumb2
                {
                  OFFSET -3.37035 -0.52449 3.41376
                  CHANNELS 3 Zrotation Xrotation Yrotation
                  End Site
                  {
                    OFFSET -1.78271 -1.18214 1.43049
                  }
                }
              }
              JOINT rIndex1
              {
                OFFSET -7.75947 0.938293 5.60832
                CHANNELS 3 Zrotation Xrotation Yrotation
                JOINT rIndex2
                {
                  OFFSET -2.54057 -0.884171 1.56538
                  CHANNELS 3 Zrotation Xrotation Yrotation
                  End Site
                  {
                    OFFSET -1.62519 -0.234802 1.16502
                  }
                }
              }
              JOINT rMid1
              {
                OFFSET -8.24714 1.18213 3.41376
                CHANNELS 3 Zrotation Xrotation Yrotation
                JOINT rMid2
                {
                  OFFSET -3.10165 -0.590103 1.0647
                  CHANNELS 3 Zrotation Xrotation Yrotation
                  End Site
                  {
                    OFFSET -2.48547 -0.328903 0.83742
                  }
                }
              }
              JOINT rRing1
              {
                OFFSET -8.82822 0.546677 1.51678
                CHANNELS 3 Zrotation Xrotation Yrotation
                JOINT rRing2
                {
                  OFFSET -2.60934 -0.819778 -0.0198488
                  CHANNELS 3 Zrotation Xrotation Yrotation
                  End Site
                  {
                    OFFSET -2.33842 -0.294052 0.168128
                  }
                }
              }
              JOINT rPinky1
              {
                OFFSET -8.27202 -0.0477905 -0.4584
                CHANNELS 3 Zrotation Xrotation Yrotation
                JOINT rPinky2
                {
                  OFFSET -1.82734 -0.647385 -0.700984
                  CHANNELS 3 Zrotation Xrotation Yrotation
                  End Site
                  {
                    OFFSET -1.69225 -0.51767 -0.607171
                  }
                }
              }
            }
          }
        }
      }
      JOINT lCollar
      {
        OFFSET 2.68224 19.2634 -4.8768
        CHANNELS 3 Zrotation Xrotation Yrotation
        JOINT lShldr
        {
          OFFSET 8.77824 -1.95073 1.46304
          CHANNELS 3 Zrotation Xrotation Yrotation
          JOINT lForeArm
          {
            OFFSET 28.1742 -1.7115 0.48768
            CHANNELS 3 Zrotation Xrotation Yrotation
            JOINT lHand
            {
              OFFSET 22.5879 0.773209 7.07136
              CHANNELS 3 Zrotation Xrotation Yrotation
              JOINT lThumb1
              {
                OFFSET 1.2192 -0.487915 3.41376
                CHANNELS 3 Zrotation Xrotation Yrotation
                JOINT lThumb2
                {
                  OFFSET 3.37035 -0.52449 3.41376
                  CHANNELS 3 Zrotation Xrotation Yrotation
                  End Site
                  {
                    OFFSET 1.78271 -1.18214 1.43049
                  }
                }
              }
              JOINT lIndex1
              {
                OFFSET 7.75947 0.938293 5.60832
                CHANNELS 3 Zrotation Xrotation Yrotation
                JOINT lIndex2
                {
                  OFFSET 2.54057 -0.884171 1.56538
                  CHANNELS 3 Zrotation Xrotation Yrotation
                  End Site
                  {
                    OFFSET 1.62519 -0.234802 1.16502
                  }
                }
              }
              JOINT lMid1
              {
                OFFSET 8.24714 1.18213 3.41376
                CHANNELS 3 Zrotation Xrotation Yrotation
                JOINT lMid2
                {
                  OFFSET 3.10165 -0.590103 1.0647
                  CHANNELS 3 Zrotation Xrotation Yrotation
                  End Site
                  {
                    OFFSET 2.48547 -0.328903 0.83742
                  }
                }
              }
              JOINT lRing1
              {
                OFFSET 8.82822 0.546677 1.51678
                CHANNELS 3 Zrotation Xrotation Yrotation
                JOINT lRing2
                {
                  OFFSET 2.60934 -0.819778 -0.0198488
                  CHANNELS 3 Zrotation Xrotation Yrotation
                  End Site
                  {
                    OFFSET 2.33842 -0.294052 0.168128
                  }
                }
              }
              JOINT lPinky1
              {
                OFFSET 8.27202 -0.0477905 -0.4584
                CHANNELS 3 Zrotation Xrotation Yrotation
                JOINT lPinky2
                {
                  OFFSET 1.82734 -0.647385 -0.700984
                  CHANNELS 3 Zrotation Xrotation Yrotation
                  End Site
                  {
                    OFFSET 1.69225 -0.51767 -0.607171
                  }
                }
              }
            }
          }
        }
      }
    }
  }
  JOINT rButtock
  {
    OFFSET -8.77824 4.35084 1.2192
    CHANNELS 3 Zrotation Xrotation Yrotation
    JOINT rThigh
    {
      OFFSET 0 -1.70687 -2.19456
      CHANNELS 3 Zrotation Xrotation Yrotation
      JOINT rShin
      {
        OFFSET 0 -36.8199 0.73152
        CHANNELS 3 Zrotation Xrotation Yrotation
        JOINT rFoot
        {
          OFFSET 0.73152 -45.1104 -5.12064
          CHANNELS 3 Zrotation Xrotation Yrotation
          End Site
          {
            OFFSET -1.1221 -3.69964 12.103
          }
        }
      }
    }
  }
  JOINT lButtock
  {
    OFFSET 8.77824 4.35084 1.2192
    CHANNELS 3 Zrotation Xrotation Yrotation
    JOINT lThigh
    {
      OFFSET 0 -1.70687 -2.19456
      CHANNELS 3 Zrotation Xrotation Yrotation
      JOINT lShin
      {
        OFFSET 0 -36.8199 0.73152
        CHANNELS 3 Zrotation Xrotation Yrotation
        JOINT lFoot
        {
          OFFSET -0.73152 -45.1104 -5.12064
          CHANNELS 3 Zrotation Xrotation Yrotation
          End Site
          {
            OFFSET 1.1221 -3.69964 12.103
          }
        }
      }
    }
  }
}
MOTION
Frames:	6
Frame Time:	0.00833333
41.329 79.7313 -193.114 3.6854 0.2919 7.6472 -8.4688 -3.06167 -0.129667 3.47786 -4.53375 0.173343 -4.94491 4.99358 0.192594 6.06008 -15.8734 2.19143 -0.0 0.0 0.0 -0.0 0.0 0.0 1.19489e-14 2.64474e-13 3.32933e-14 77.179 -19.3278 -28.3272 -6.67494 -2.34953 11.7018 -1.72621 34.3545 5.51898 1.05774e-09 5.23847e-10 -1.33392e-09 1.79894e-09 8.87837e-10 -2.32652e-09 1.05774e-09 5.23847e-10 -1.33393e-09 7.73091 5.47488 0.417314 1.05773e-09 5.23848e-10 -1.33392e-09 2.90554 0.965183 0.102902 1.05774e-09 5.23848e-10 -1.33392e-09 10.2786 0.731801 0.0259123 1.05774e-09 5.23848e-10 -1.33392e-09 2.22167 -0.733487 -0.20892 1.19371e-14 2.64475e-13 3.29672e-14 -66.0298 28.1519 -23.3363 15.0677 -7.85426 -27.7176 0.469166 -19.1196 2.79208 -4.79185e-11 1.02134e-09 3.18258e-10 -8.14764e-11 1.7747e-09 5.43675e-10 -4.79307e-11 1.02133e-09 3.18275e-10 -7.73091 5.47488 -0.417314 -4.79269e-11 1.02133e-09 3.18261e-10 -2.90554 0.965183 -0.102902 -4.7933e-11 1.02133e-09 3.18261e-10 -10.2786 0.731801 -0.0259123 -4.7917e-11 1.02134e-09 3.18253e-10 -2.22167 -0.733487 0.20892 -2.03217e-16 0.0 -3.88251e-19 -0.759577 -44.8371 3.15515 -0.13191 28.9868 1.04474 -0.678397 -13.2043 -1.22611 2.03217e-16 0.0 3.88251e-19 -7.9207 -5.47001 4.31033 -0.126906 24.3761 -1.17157 -1.7335 -13.3032 -8.71903
41.4562 79.8455 -191.836 4.2552 0.5984 7.9563 -9.02178 -3.37704 -0.342756 3.70214 -4.46655 0.126726 -4.96176 4.99925 0.0955086 6.17352 -16.1729 2.03417 -0.0 0.0 0.0 -0.0 0.0 0.0 4.01914e-14 1.60183e-13 5.43323e-14 75.9431 -21.3724 -30.1543 -6.64469 -2.33755 11.6444 -1.96162 36.4116 5.94952 5.99006e-10 3.2368e-10 -5.25884e-10 1.0243e-09 5.48305e-10 -9.21816e-10 5.99005e-10 3.2368e-10 -5.25887e-10 7.73091 5.47488 0.417314 5.99002e-10 3.23683e-10 -5.25882e-10 2.90554 0.965183 0.102902 5.99008e-10 3.23683e-10 -5.25882e-10 10.2786 0.731801 0.0259123 5.99008e-10 3.23684e-10 -5.25877e-10 2.22167 -0.733487 -0.20892 4.01614e-14 1.60184e-13 5.3991e-14 -64.9603 28.0894 -24.8322 15.5838 -8.30884 -28.7946 0.529575 -20.249 2.97142 -3.82766e-10 -3.43951e-10 2.36715e-10 -6.61003e-10 -5.8756e-10 4.00239e-10 -3.82783e-10 -3.43965e-10 2.36738e-10 -7.73091 5.47488 -0.417314 -3.82779e-10 -3.43967e-10 2.36716e-10 -2.90554 0.965183 -0.102902 -3.82783e-10 -3.43967e-10 2.36718e-10 -10.2786 0.731801 -0.0259123 -3.82764e-10 -3.43953e-10 2.36712e-10 -2.22167 -0.733487 0.20892 -2.03217e-16 0.0 -3.88251e-19 -1.35865 -45.0775 3.52092 -0.102142 26.1878 1.04736 -0.735603 -13.4059 -1.30787 2.03217e-16 0.0 3.88251e-19 -8.30901 -3.95753 4.10852 -0.118489 22.3723 -1.14148 -1.6837 -11.8452 -9.49838
41.5459 79.8711 -190.579 4.5535 1.157 8.3901 -9.31122 -3.66064 -0.617272 3.83204 -4.42141 0.0542198 -4.87925 5.1536 0.0216877 6.06511 -16.7024 1.86768 -0.0 0.0 0.0 -0.0 0.0 0.0 4.64964e-14 6.59338e-14 6.25675e-14 74.6393 -23.1969 -31.9553 -6.60262 -2.31916 11.567 -2.19611 38.1674 6.34213 2.70669e-10 2.01644e-10 1.4246e-10 4.73101e-10 3.46572e-10 2.38676e-10 2.70669e-10 2.01644e-10 1.4246e-10 7.73091 5.47488 0.417314 2.70665e-10 2.01647e-10 1.42463e-10 2.90554 0.965183 0.102902 2.7067e-10 2.01647e-10 1.42464e-10 10.2786 0.731801 0.0259123 2.70671e-10 2.01648e-10 1.4247e-10 2.22167 -0.733487 -0.20892 4.64385e-14 6.59352e-14 6.22196e-14 -63.9968 27.9628 -26.1681 16.0764 -8.75846 -29.8341 0.588948 -21.2683 3.13593 -5.35685e-10 -1.0604e-09 1.77319e-10 -9.26172e-10 -1.82936e-09 2.97294e-10 -5.35704e-10 -1.06042e-09 1.77345e-10 -7.73091 5.47488 -0.417314 -5.357e-10 -1.06042e-09 1.77319e-10 -2.90554 0.965183 -0.102902 -5.35704e-10 -1.06042e-09 1.77321e-10 -10.2786 0.731801 -0.0259123 -5.35683e-10 -1.0604e-09 1.77316e-10 -2.22167 -0.733487 0.20892 -2.03217e-16 0.0 -3.88251e-19 -1.88321 -45.2925 3.49585 -0.0782521 23.707 1.06566 -0.727547 -13.5244 -1.2064 2.03217e-16 0.0 3.88251e-19 -8.5522 -2.36295 3.82354 -0.112287 20.3216 -1.11039 -1.51725 -10.5739 -9.821
41.5834 79.9423 -189.302 4.5396 1.7775 8.7974 -9.17583 -3.94677 -0.998801 3.81317 -4.39285 -0.0615118 -4.58159 5.57342 -0.0270254 5.50971 -17.6693 1.63791 -0.0 0.0 0.0 -0.0 0.0 0.0 1.81615e-14 -3.72675e-14 4.75165e-14 73.2521 -24.859 -33.7275 -6.53719 -2.28853 11.4494 -2.42019 39.6356 6.69011 7.13938e-11 1.56672e-10 7.17508e-10 1.45798e-10 2.8673e-10 1.2353e-09 7.13942e-11 1.56671e-10 7.17506e-10 7.73091 5.47488 0.417314 7.13894e-11 1.56674e-10 7.17511e-10 2.90554 0.965183 0.102902 7.13949e-11 1.56673e-10 7.1751e-10 10.2786 0.731801 0.0259123 7.13949e-11 1.56674e-10 7.17515e-10 2.22167 -0.733487 -0.20892 1.80535e-14 -3.72671e-14 4.71718e-14 -63.1595 27.7254 -27.3492 16.5272 -9.18369 -30.7998 0.642382 -22.134 3.2775 -4.14892e-10 -8.993e-10 1.85729e-10 -7.19407e-10 -1.56055e-09 3.15067e-10 -4.14909e-10 -8.99313e-10 1.85751e-10 -7.73091 5.47488 -0.417314 -4.14905e-10 -8.99315e-10 1.8573e-10 -2.90554 0.965183 -0.102902 -4.14908e-10 -8.99315e-10 1.85731e-10 -10.2786 0.731801 -0.0259123 -4.1489e-10 -8.993e-10 1.85725e-10 -2.22167 -0.733487 0.20892 -2.03217e-16 0.0 -3.88251e-19 -2.2954 -45.4795 2.82077 -0.0597124 21.4629 1.106 -0.63219 -13.4976 -0.879797 2.03217e-16 0.0 3.88251e-19 -8.54981 -0.57683 3.42256 -0.109788 18.0009 -1.07377 -1.22838 -9.5937 -9.44895
41.6133 80.2045 -187.951 4.2736 2.4662 8.9882 -8.79666 -4.24566 -1.45542 3.69394 -4.36681 -0.207847 -4.13453 6.18357 -0.0569501 4.63519 -18.9596 1.36542 -0.0 0.0 0.0 -0.0 0.0 0.0 -3.2896e-14 -1.60466e-13 1.7139e-14 71.8696 -26.3069 -35.4518 -6.47959 -2.26179 11.3458 -2.59199 40.7414 6.95753 -8.23075e-11 1.34128e-10 1.33128e-09 -1.00287e-10 2.72341e-10 2.2978e-09 -8.23057e-11 1.34126e-10 1.33128e-09 7.73091 5.47488 0.417314 -8.2311e-11 1.34128e-10 1.33129e-09 2.90554 0.965183 0.102902 -8.23046e-11 1.34126e-10 1.33128e-09 10.2786 0.731801 0.0259123 -8.23083e-11 1.34127e-10 1.33129e-09 2.22167 -0.733487 -0.20892 -3.30717e-14 -1.60467e-13 1.68035e-14 -62.446 27.3842 -28.3925 16.9556 -9.60061 -31.7324 0.690024 -22.8875 3.40185 -1.14359e-10 -2.45613e-10 2.16373e-10 -2.02768e-10 -4.44848e-10 3.73799e-10 -1.1437e-10 -2.4562e-10 2.16389e-10 -7.73091 5.47488 -0.417314 -1.14365e-10 -2.45622e-10 2.16376e-10 -2.90554 0.965183 -0.102902 -1.1437e-10 -2.45622e-10 2.16374e-10 -10.2786 0.731801 -0.0259123 -1.14356e-10 -2.45611e-10 2.16368e-10 -2.22167 -0.733487 0.20892 -2.03217e-16 0.0 -3.88251e-19 -2.71209 -45.6615 1.6526 -0.0431276 19.4403 1.16356 -0.468018 -13.3616 -0.368311 2.03217e-16 0.0 3.88251e-19 -8.40574 1.3523 2.89852 -0.106497 15.4546 -1.03361 -0.871941 -8.75145 -8.61083
41.7003 80.0861 -186.569 4.1387 3.1561 9.1323 -8.4023 -4.4721 -1.90867 3.56025 -4.36608 -0.355262 -3.74871 6.77765 -0.0675525 3.84251 -20.1926 1.15408 -0.0 0.0 0.0 -0.0 0.0 0.0 -8.70338e-14 -2.5264e-13 -1.09495e-14 70.5594 -27.491 -37.0879 -6.4323 -2.23996 11.2607 -2.71343 41.5144 7.14727 -1.24819e-10 1.77389e-10 1.78038e-09 -1.59175e-10 3.66524e-10 3.07311e-09 -1.24816e-10 1.77386e-10 1.78037e-09 7.73091 5.47488 0.417314 -1.24822e-10 1.77387e-10 1.78038e-09 2.90554 0.965183 0.102902 -1.24814e-10 1.77384e-10 1.78038e-09 10.2786 0.731801 0.0259123 -1.24822e-10 1.77385e-10 1.78038e-09 2.22167 -0.733487 -0.20892 -8.72696e-14 -2.52643e-13 -1.12694e-14 -61.8272 27.0638 -29.2706 17.3912 -10.0417 -32.6833 0.735925 -23.5961 3.51979 2.29881e-10 6.74792e-10 2.00697e-10 3.9074e-10 1.13772e-09 3.52803e-10 2.29875e-10 6.74793e-10 2.00707e-10 -7.73091 5.47488 -0.417314 2.2988e-10 6.7479e-10 2.00702e-10 -2.90554 0.965183 -0.102902 2.29875e-10 6.7479e-10 2.00697e-10 -10.2786 0.731801 -0.0259123 2.29883e-10 6.74796e-10 2.00691e-10 -2.22167 -0.733487 0.20892 -2.03217e-16 0.0 -3.88251e-19 -3.15157 -45.8149 0.441771 -0.0272022 17.8337 1.22322 -0.272502 -13.2278 0.263601 2.03217e-16 0.0 3.88251e-19 -8.23165 3.21624 2.32973 -0.101472 13.1511 -0.998813 -0.528244 -7.91171 -7.6849
